# xmcd
#
# Track frame offsets:
#  150
#  44792
#  81123
#  108037
#  141085
#  178662
#
# Disc length: 2708 seconds
#
# Revision: 0
# Processed by: cddbd v1.5.1PL2 Copyright (c) Steve Scherf et al.
# Submitted via: Collectorz.com_Music_Collector 6.9
#
DISCID=4b0a9206
DTITLE=Bruce Springsteen - The Complete Liberty Hall Tapes Vol.2: March 10th, 1974, 2nd Show - Disc 2
DYEAR=1974
DGENRE=Rock
TTITLE0=For You
TTITLE1=Rosalita (Come Out Tonight) (End Cut)
TTITLE2=Blinded By The Light
TTITLE3=Zero And Blind Terry
TTITLE4=Let The Four Winds Blow
TTITLE5=Twist And Shout
EXTD=
EXTT0=
EXTT1=
EXTT2=
EXTT3=
EXTT4=
EXTT5=
PLAYORDER=
